<svg xmlns="http://www.w3.org/2000/svg" width="160" height="66" fill="#000" fill-rule="evenodd" xmlns:v="https://vecta.io/nano"><path d="M48.03 24.783c3.65 3.974 11.616.375 9.03-4.922-1.726-3.556-4.312-2.73-6.158-1.82-3.696 1.78-4.395 5.047-2.873 6.742zm-5.926-2.78c2.376 4.866-4.937 8.17-8.292 4.52-1.398-1.555-.755-4.56 2.636-6.193 1.697-.836 4.073-1.596 5.656 1.672zm115.83 28.372c-1.22.16-2.494.268-3.715.373l-.042.004v.056c-2.415 17.364-26.188 20.23-26.78 6.6-.27-6.167 11.593-7.95 23.398-9.088.2-5.407-3.565-4.195-8.15-2.722-4.82 1.548-10.533 3.383-13.458-1.88-5.02-9.025 14.632-17.938 16.728-16.102 6.353 5.562 3.482 6.6-1.2 8.267l-.188.068c-9.5 3.4-5.8 4.107-4.5 3.726 7.57-2.253 14.366-1.04 14.312 8.317l3.757-.27c2.306-.215 2.467 2.435-.16 2.652zm-7.514.756c-9.124 1.028-17.013 2.436-16.153 5.355 1.716 5.573 13.577 6.818 16.153-5.355zm-32.62-16.9c-.815 5.65-.794 11.65-.112 11.688.334.02 2.304-.346 2.94-1.507.6-1.118 1.177-2.657 1.77-4.27h0c1.198-3.25 2.507-6.8 4.495-7.817 2.842-1.45-8.088-5.045-9.093 1.906zM28.883 62.666c-7.92 5.338-14.22 4.16-12.212-10.848 1.45-10.904-.948-11.52-3.122-9.442-2.845 2.697-4.628 9.723-4.684 16.412a50.89 50.89 0 0 0 1.004 4.776c.334 1.63-4.907 3.315-7.974 1C.837 63.8 0 55.865 0 45.13c0-8.824 1.17-14.895 2.23-15.175 8.03-2.2 9.312 1.348 7.583 7.98a47.64 47.64 0 0 0-1.395 7.924c1.673-4.664 4.07-8.485 6.803-10.173 7.416-4.664 13.605-2.473 12.434 6.8-2.007 16.58-2.174 18.827-.4 17.535 2.23-1.574 3.68 1.238 1.618 2.642zm12.883 2.476c5.4.62 11.04-1.068 13.216-4.552 1.84-2.923.334-3.935-1.785-1.575-4.46 5.116-9.088 2.8-11.04-2.36l.502-.168C52.08 52.72 57.99 42.493 54.256 36.704c-5.13-7.98-21.188-.844-23.196 10.34-1.84 10.34 2.955 17.254 10.705 18.097zm-.4-11.97c5.855-4.16 7.806-13.32 6.2-15.905-1.728-2.697-5.074 1.517-6.245 11.746-.1 1.46-.1 2.865.056 4.16zm35.748-2.12c2.063-.675 4.37-2.552 5.966-5.06.447-.703.823-1.335 1.34-2.98-.062.2-.04.108.02-.117.108-.4.333-1.262.37-1.624a1.72 1.72 0 0 1 .112-.449c1.225-6.857-3-10.736-8.867-7.813-3.3 1.63-7.36 7.813-9.812 14.5.613-3.598 1.672-7.026 2.843-10.4 2.007-5.957-1.728-8.992-8.14-7.25-1.06.28-3 8.093-3 16.917 0 10.734.558 16.916 1.617 17.704 3.066 2.36 8.53.618 7.973-.956-.216-.598-.38-1.2-.542-1.797l-.016-.057c0-.17 0-.338-.055-.506-1.06-6.97 3-16.635 6.356-19.22.892-.73 2.118-.225 2.286 1.686-2.732 1.35-3.624 3.7-3.624 4.72 0 2.754 2.787 3.428 5.185 2.698zm36.083-23.892l-1.115 7.53c-1.06 10.06-.612 18.996.613 22.986.726 2.137 3.457 4.946 6.078 2.023 2.843-3.203 5.967-1.35 2.174 2.416-2.34 2.305-6.7 3.878-11.04 3.428-3.123-.393-5.018-2.415-6.134-5.505-.444.898-.947 1.685-1.56 2.302-2.12 2.193-4.685 3.43-7.974 3.092-6.637-.73-10.538-7.923-8.7-18.153 1.952-10.8 11.32-14.725 16.728-11.857l.335-4.104c.028-.14.04-.28.055-.422s.028-.28.055-.42c-1.645.362-3.3.68-4.962.956-23.975 4-15.722-15.57-9.868-20.683 6.636-5.733 7.36-1.855 5.297-.562-3.68 2.36-5.297 15.905 5.24 15.905 1.73 0 3.346-.112 4.962-.28 3.3-18.322 13.27-27.203 21.356-24.28 8.976 3.26 8.03 17.535-11.543 25.63zM102.28 51.554c-.224-3.542-.224-7.532-.167-11.636 0-.26.015-.52.03-.773a11.95 11.95 0 0 0 .027-.688c-3.346-1.518-6.635 3.653-7.473 10.792-.946 8.373 2.788 12.813 4.908 10.8 1.617-1.63 2.453-6.803 2.676-8.486zM126.365 8.4c-1.784-2.642-8.307.562-12.098 14.332 9.535-4.554 13.326-12.422 12.098-14.332z"/></svg>